<svg width="93" height="70" viewBox="0 0 93 70" fill="none" xmlns="http://www.w3.org/2000/svg">
<g opacity="0.8" clip-path="url(#clip0_4118_677)">
<path d="M92.9698 65.0773C93.01 65.2768 93.01 67.1114 92.9698 67.311C92.6834 68.718 91.7714 69.6587 90.4045 69.9567C90.2211 69.9956 2.87688 70.0189 2.73869 69.98C2.69095 69.967 2.57789 69.9411 2.48744 69.923C1.91709 69.8142 1.38191 69.5136 0.927136 69.0471C0.444724 68.5522 0.190955 68.0573 0.0502513 67.3447C0.00753769 67.1166 0 66.9845 0 66.1941C0 65.2068 0.0175879 65.0436 0.178392 64.5512C0.424623 63.7868 1.01256 63.1053 1.74623 62.727C2.0804 62.5559 2.31407 62.4834 2.72613 62.4238C2.90955 62.3979 11.3291 62.3901 46.4824 62.3875C83.9347 62.3875 90.0503 62.3901 90.2764 62.4238C90.6231 62.4704 90.9347 62.5663 91.2437 62.7192C92.1432 63.1675 92.7487 63.9941 92.9698 65.0773Z" fill="white"/>
<path d="M84.1946 45.4079C84.2317 46.0319 84.1946 46.6949 84.0834 47.2878C84.0612 47.3944 84.034 47.5296 84.0167 47.5868C84.0019 47.644 83.9771 47.735 83.9648 47.7922C83.9524 47.8468 83.9203 47.9404 83.8931 47.9976C83.8659 48.0548 83.8437 48.1172 83.8437 48.1302C83.8437 48.1952 83.5199 48.8036 83.4482 48.8738C83.4408 48.8816 83.4062 48.9284 83.3691 48.9778C83.2777 49.1078 83.0849 49.3106 82.9415 49.4328C82.8723 49.49 82.813 49.542 82.8056 49.5498C82.7784 49.581 82.467 49.776 82.3731 49.8202C82.3187 49.8462 82.2297 49.8904 82.1778 49.9164C82.1234 49.9424 82.0443 49.9737 81.9974 49.9815C81.9529 49.9893 81.9084 50.0075 81.901 50.0205C81.8936 50.0335 81.8664 50.0439 81.8392 50.0439C81.8145 50.0439 81.7724 50.0543 81.7477 50.0699C81.7255 50.0829 81.634 50.1063 81.5451 50.1219C81.4561 50.1375 81.3127 50.1635 81.2237 50.1817C80.9988 50.2233 58.7541 50.2233 58.4847 50.1791C58.324 50.1557 58.1485 50.1219 57.8173 50.0543C57.7704 50.0465 57.721 50.0283 57.7061 50.0179C57.6938 50.0075 57.6369 49.9893 57.5825 49.9789C57.5282 49.9685 57.4738 49.9528 57.459 49.9424C57.4466 49.932 57.3898 49.9086 57.3354 49.8904C57.1821 49.8358 56.668 49.5888 56.631 49.5498C56.6062 49.5238 56.5197 49.4692 56.4777 49.4562C56.453 49.4458 56.4332 49.4328 56.4332 49.4224C56.4332 49.412 56.3962 49.3834 56.3541 49.3548C56.3096 49.3288 56.2676 49.3002 56.2602 49.2924C56.2528 49.2846 56.1935 49.23 56.1243 49.1728C55.9636 49.0376 55.6819 48.7412 55.5558 48.5748C55.5014 48.502 55.452 48.4396 55.4446 48.4318C55.4322 48.4188 55.3828 48.346 55.2913 48.2004C55.2666 48.164 55.2394 48.1146 55.2295 48.0938C55.2221 48.073 55.2073 48.0496 55.1999 48.0418C55.1628 48.008 54.9255 47.5166 54.9255 47.4724C54.9255 47.4568 54.9156 47.4438 54.9008 47.4438C54.8885 47.4438 54.8761 47.423 54.8761 47.397C54.8761 47.3736 54.8613 47.3242 54.844 47.2878C54.8267 47.2514 54.7921 47.1526 54.7673 47.0668C54.7426 46.981 54.713 46.89 54.7006 46.8665C54.6883 46.8405 54.6784 46.7989 54.6784 46.7729C54.6784 46.7469 54.671 46.7157 54.6611 46.7053C54.6438 46.6871 54.624 46.6065 54.5671 46.3127C54.5597 46.2685 54.5424 46.1931 54.5276 46.1437C54.5029 46.0501 54.4757 45.8161 54.4238 45.2727C54.3818 44.8255 54.3818 5.36922 54.4263 4.93241C54.4411 4.7686 54.4707 4.51639 54.4905 4.37339C54.5251 4.11858 54.5375 4.05358 54.6141 3.71037C54.6339 3.61676 54.6586 3.50496 54.6685 3.46336C54.6784 3.41916 54.6932 3.37236 54.7031 3.35936C54.713 3.34376 54.7303 3.29175 54.7402 3.24235C54.75 3.19295 54.7673 3.13575 54.7772 3.11235C54.7871 3.09155 54.8069 3.04475 54.8192 3.00834L54.886 2.84454C54.9082 2.78994 54.9255 2.73014 54.9255 2.70934C54.9255 2.68853 54.9379 2.67033 54.9502 2.67033C54.9651 2.67033 54.975 2.65993 54.975 2.64433C54.975 2.60013 55.059 2.41033 55.0788 2.41033C55.0911 2.41033 55.0985 2.39733 55.0985 2.38433C55.0985 2.34272 55.3853 1.87211 55.5014 1.7213C55.7189 1.43789 56.1515 1.01668 56.4011 0.842476C56.6384 0.67607 57.108 0.408262 57.1574 0.408262C57.1698 0.408262 57.2192 0.390061 57.2686 0.36666C57.4367 0.288658 57.459 0.280858 57.5455 0.262657C57.5924 0.254857 57.6443 0.236656 57.6567 0.226256C57.6715 0.215856 57.716 0.200255 57.7556 0.192455C57.7976 0.182054 57.9187 0.158654 58.0274 0.135253C58.3487 0.0676509 58.5069 0.0442501 58.7813 0.0208493C59.1323 -0.00515152 80.6256 -0.00775156 80.9395 0.0182493C81.0754 0.0312497 81.2485 0.0520503 81.3226 0.0676508C81.7008 0.140453 81.7576 0.153454 81.7972 0.174254C81.8219 0.189855 81.8639 0.200255 81.8886 0.200255C81.9158 0.200255 81.9455 0.210655 81.9529 0.226256C81.9603 0.239256 81.985 0.252257 82.0072 0.252257C82.0962 0.252257 82.5757 0.509665 82.7908 0.67347C82.9786 0.816475 83.2925 1.13629 83.4111 1.30529C83.4507 1.36249 83.4902 1.41449 83.4976 1.42229C83.5075 1.43009 83.5199 1.4535 83.5298 1.4743C83.552 1.5237 83.6039 1.6147 83.6237 1.6303C83.6509 1.6563 83.8437 2.07752 83.8437 2.11392C83.8437 2.13472 83.856 2.15032 83.8684 2.15032C83.8832 2.15032 83.8931 2.17892 83.8931 2.21532C83.8931 2.25172 83.903 2.28032 83.9153 2.28032C83.9277 2.28032 83.9425 2.32972 83.9524 2.38953C83.9623 2.44933 83.9796 2.51173 83.9895 2.52733C84.0117 2.55593 84.0266 2.61573 84.081 2.90434C84.1946 3.49456 84.2317 4.13938 84.1946 4.7686C84.1773 5.02341 84.1551 5.30162 84.1427 5.38742C84.1279 5.47322 84.1057 5.63183 84.0908 5.73843C84.0735 5.84504 84.0513 5.94384 84.0389 5.95944C84.0266 5.97244 84.0167 6.01404 84.0167 6.05304C84.0167 6.09204 84.0068 6.13105 83.9944 6.13885C83.9846 6.14665 83.9673 6.20385 83.9574 6.26365C83.9475 6.32345 83.9302 6.38585 83.9203 6.40145C83.9079 6.41445 83.8807 6.48466 83.8536 6.55746C83.8288 6.62766 83.7918 6.72126 83.7695 6.76547C83.7473 6.80707 83.6954 6.90847 83.6558 6.98647C83.6163 7.06448 83.5792 7.13468 83.5718 7.14248C83.5644 7.15028 83.5174 7.22048 83.468 7.29848C83.3765 7.43889 83.1195 7.7301 82.9539 7.8835C82.7512 8.06811 82.3483 8.30992 82.0839 8.40612C82.0122 8.43212 81.943 8.46072 81.9282 8.47112C81.9158 8.48152 81.854 8.49712 81.7922 8.50752C81.7304 8.51792 81.6711 8.53612 81.6563 8.54652C81.6266 8.56992 81.503 8.59332 81.2114 8.62453C81.0903 8.64013 80.9148 8.66353 80.8209 8.67653C80.7121 8.69473 77.625 8.70253 72.0416 8.70253H63.428V20.3509L71.5423 20.3587C79.6913 20.3665 80.0201 20.3717 80.198 20.4549C80.2252 20.4653 80.2746 20.4835 80.3092 20.4913C80.4452 20.5199 80.5959 20.5615 80.6429 20.5823C80.6701 20.5953 80.7319 20.6239 80.7838 20.6473C80.8332 20.6707 80.8827 20.6889 80.895 20.6889C80.9148 20.6889 81.1768 20.8215 81.199 20.8449C81.2064 20.8527 81.2509 20.8813 81.2979 20.9073C81.3449 20.9359 81.4141 20.9827 81.4511 21.0113C81.4857 21.0425 81.5475 21.0919 81.5871 21.1231C81.8837 21.3623 82.1976 21.7731 82.3854 22.171C82.4423 22.2932 82.4991 22.4128 82.5115 22.4362C82.5238 22.4622 82.5337 22.5012 82.5337 22.522C82.5337 22.5428 82.5461 22.561 82.5584 22.561C82.5733 22.561 82.5831 22.5818 82.5831 22.6052C82.5831 22.6494 82.6375 22.8418 82.6845 22.964C82.6944 22.9926 82.7166 23.0862 82.7314 23.172C82.7463 23.2578 82.7685 23.3852 82.7833 23.458C82.8402 23.7752 82.855 24.0508 82.855 24.719C82.855 25.1117 82.8427 25.5277 82.8303 25.6421C82.7858 26.0399 82.7784 26.0841 82.7562 26.1361C82.7438 26.1647 82.729 26.2401 82.7191 26.3051C82.7067 26.4143 82.6771 26.5287 82.6326 26.6561C82.6227 26.6847 82.5831 26.7965 82.5461 26.9031C82.4447 27.1891 82.4002 27.2931 82.3805 27.2931C82.3681 27.2931 82.3607 27.3061 82.3607 27.3191C82.3607 27.3555 82.1778 27.6649 82.0666 27.8131C81.9776 27.9353 81.5475 28.3852 81.5203 28.3852C81.5105 28.3852 81.4709 28.4138 81.4314 28.4502C81.3943 28.484 81.2336 28.5802 81.0754 28.6608C80.9197 28.7388 80.7714 28.8168 80.7492 28.8298C80.7245 28.8428 80.6825 28.8532 80.6577 28.8532C80.6305 28.8532 80.6034 28.8636 80.5959 28.8766C80.5885 28.8896 80.5292 28.9078 80.4649 28.9182C80.3982 28.9286 80.3364 28.9442 80.3216 28.9572C80.2944 28.9806 80.1906 28.9988 79.9014 29.0352C79.7927 29.0508 79.6295 29.0742 79.5356 29.0872C79.4293 29.1028 76.5474 29.1132 71.399 29.1132H63.428V41.5416H72.1454C77.8376 41.5416 80.9098 41.5494 80.9988 41.5676C81.0754 41.5806 81.2213 41.604 81.3226 41.617C81.4239 41.63 81.5525 41.6534 81.6068 41.669C81.9257 41.7522 81.9232 41.7496 82.0962 41.825C82.6103 42.0512 83.0157 42.3528 83.332 42.7506C83.4037 42.839 83.4754 42.9352 83.4927 42.9612C83.6385 43.1952 83.6929 43.2914 83.7102 43.3408C83.7176 43.3746 83.7349 43.4058 83.7423 43.4136C83.7646 43.4292 83.8437 43.6086 83.8437 43.6398C83.8437 43.6528 83.8659 43.71 83.8906 43.7673C83.9178 43.8245 83.9475 43.9077 83.9549 43.9493C83.9648 43.9909 83.9796 44.0481 83.9895 44.0767C84.0365 44.1989 84.0661 44.3237 84.0908 44.4797C84.1057 44.5733 84.1279 44.7189 84.1427 44.8047C84.1551 44.8905 84.1798 45.1609 84.1946 45.4079V45.4079Z" fill="white"/>
<path d="M49.0556 3.61424C49.1123 3.92263 49.137 4.51327 49.1074 4.94188C49.0778 5.35743 49.068 5.44367 48.994 5.86183C48.9274 6.23294 48.925 6.25385 48.9052 6.27998C48.8954 6.29305 48.8781 6.36884 48.8683 6.44202C48.8584 6.51781 48.8411 6.58576 48.8288 6.59621C48.8165 6.60405 48.8066 6.6328 48.8066 6.66155C48.8066 6.68769 48.7968 6.73211 48.7844 6.75825C48.7721 6.78177 48.7425 6.87324 48.7179 6.95949C48.6932 7.04573 48.6661 7.12675 48.6562 7.14243C48.6464 7.1555 48.6316 7.21299 48.6217 7.26526C48.6118 7.32015 48.5946 7.36458 48.5823 7.36458C48.5699 7.36458 48.5601 7.39332 48.5601 7.42991C48.5601 7.4665 48.5502 7.49525 48.5379 7.49525C48.5255 7.49525 48.5108 7.52923 48.5034 7.57365C48.4935 7.61547 48.4664 7.6991 48.4393 7.7566C48.4121 7.81671 48.3826 7.89773 48.3752 7.93954C48.3653 7.98397 48.348 8.01795 48.3357 8.01795C48.3234 8.01795 48.3135 8.03624 48.3135 8.05715C48.3135 8.07806 48.3037 8.11726 48.2913 8.14339C48.279 8.16691 48.2494 8.24009 48.2272 8.30543C48.2026 8.37077 48.1681 8.45962 48.1508 8.50667C48.1311 8.55109 48.1163 8.60598 48.1163 8.6295C48.1163 8.65302 48.1064 8.67132 48.0916 8.67132C48.0793 8.67132 48.067 8.68961 48.067 8.71052C48.067 8.73143 48.0571 8.77063 48.0448 8.79676C47.993 8.90653 47.9437 9.04243 47.9437 9.0764C47.9437 9.09731 47.9338 9.11561 47.919 9.11561C47.9067 9.11561 47.8944 9.1339 47.8944 9.15742C47.8944 9.18094 47.8771 9.23844 47.8574 9.2881C47.8377 9.33775 47.8056 9.41616 47.7859 9.46058C47.7662 9.50763 47.7366 9.59649 47.7169 9.6566C47.6996 9.71932 47.6774 9.76898 47.6676 9.76898C47.6602 9.76898 47.6429 9.80556 47.6355 9.85261C47.6256 9.89965 47.6084 9.95453 47.5985 9.97805C47.5813 10.0173 47.5714 10.0408 47.49 10.2446C47.4678 10.2995 47.4333 10.3831 47.4136 10.4328C47.3939 10.4825 47.3766 10.54 47.3766 10.5609C47.3766 10.5844 47.3668 10.6105 47.352 10.6184C47.3396 10.6262 47.3273 10.6576 47.3273 10.6863C47.3273 10.7124 47.3175 10.736 47.3027 10.736C47.2903 10.736 47.278 10.7543 47.278 10.7778C47.278 10.8013 47.2607 10.8588 47.241 10.9085C47.1868 11.0365 47.1424 11.1541 47.1054 11.2587C47.0882 11.3083 47.0635 11.3606 47.0512 11.3737C47.0413 11.3893 47.0315 11.4155 47.0315 11.4364C47.0315 11.4573 47.0142 11.5122 46.9945 11.5618C46.9747 11.6115 46.9402 11.6899 46.9205 11.7395C46.9008 11.7892 46.8835 11.8362 46.8835 11.8441C46.8835 11.8519 46.8564 11.9225 46.8219 12.0009C46.7874 12.0793 46.7603 12.1603 46.7603 12.1786C46.7603 12.1995 46.7504 12.2256 46.7405 12.2413C46.7282 12.2544 46.7035 12.3067 46.6863 12.3563C46.6493 12.4609 46.6049 12.5785 46.5507 12.7065C46.531 12.7562 46.5137 12.8084 46.5137 12.8241C46.5137 12.8398 46.4915 12.8921 46.4644 12.9444C46.4373 12.9966 46.4151 13.0489 46.4151 13.0646C46.4151 13.0803 46.3978 13.1325 46.3781 13.1822C46.3239 13.3102 46.2795 13.4278 46.2425 13.5324C46.2252 13.582 46.2006 13.6343 46.1883 13.6474C46.1784 13.6631 46.1685 13.6918 46.1685 13.7127C46.1685 13.7362 46.1537 13.7833 46.1365 13.8199C46.1168 13.8565 46.0724 13.9741 46.0329 14.0812C45.9935 14.1884 45.9491 14.306 45.9294 14.3426C45.9121 14.3791 45.8973 14.421 45.8973 14.4393C45.8973 14.4576 45.8751 14.5124 45.848 14.5647C45.8209 14.617 45.7987 14.6692 45.7987 14.6849C45.7987 14.7006 45.7814 14.7529 45.7617 14.8025C45.7075 14.9306 45.6631 15.0482 45.6261 15.1527C45.6089 15.2024 45.5842 15.2547 45.5719 15.2677C45.562 15.2834 45.5522 15.3122 45.5522 15.3331C45.5522 15.3566 45.5349 15.4089 45.5152 15.4507C45.4954 15.4899 45.4782 15.5421 45.4782 15.5604C45.4782 15.5813 45.4683 15.597 45.456 15.597C45.4437 15.597 45.4264 15.6388 45.419 15.6911C45.4092 15.7408 45.382 15.8218 45.3574 15.8688C45.3327 15.9159 45.3031 15.9917 45.2933 16.0361C45.2859 16.0831 45.2662 16.125 45.2538 16.1328C45.2415 16.1432 45.2316 16.172 45.2316 16.2007C45.2316 16.2269 45.2218 16.2504 45.207 16.2504C45.1947 16.2504 45.1823 16.2687 45.1823 16.2896C45.1823 16.3105 45.1675 16.3654 45.1478 16.4124C45.1281 16.4595 45.096 16.5405 45.0738 16.5954C45.0517 16.6476 45.0344 16.7078 45.0344 16.7313C45.0344 16.7548 45.0245 16.7731 45.0097 16.7731C44.9974 16.7731 44.9851 16.7914 44.9851 16.8123C44.9851 16.8332 44.9752 16.8724 44.9629 16.8985C44.9506 16.9221 44.921 16.9952 44.8988 17.0606C44.8741 17.1259 44.8396 17.2148 44.8224 17.2618C44.8026 17.3062 44.7878 17.3611 44.7878 17.3846C44.7878 17.4082 44.778 17.4265 44.7632 17.4265C44.7509 17.4265 44.7385 17.45 44.7385 17.4761C44.7385 17.5049 44.7287 17.5362 44.7139 17.5441C44.7016 17.5519 44.6892 17.5807 44.6892 17.6042C44.6892 17.6277 44.672 17.6826 44.6522 17.7244C44.6325 17.7636 44.6153 17.8159 44.6153 17.8342C44.6153 17.8551 44.6054 17.8708 44.5906 17.8708C44.5783 17.8708 44.566 17.889 44.566 17.9126C44.566 17.9361 44.5487 17.9936 44.529 18.0432C44.5092 18.0929 44.4747 18.1713 44.455 18.221C44.4353 18.2706 44.418 18.3203 44.418 18.3333C44.418 18.3464 44.3909 18.417 44.3564 18.4875C44.3219 18.5581 44.2947 18.6313 44.2947 18.6496C44.2947 18.6679 44.2849 18.7018 44.2726 18.728C44.2602 18.7515 44.2405 18.8012 44.2257 18.8377C44.0876 19.1853 44.0581 19.2637 44.0235 19.3604C44.0063 19.4101 43.9816 19.4624 43.9693 19.4754C43.9594 19.4911 43.9496 19.5172 43.9496 19.5382C43.9496 19.5591 43.9323 19.6139 43.9126 19.6636C43.8584 19.7917 43.814 19.9093 43.777 20.0138C43.7597 20.0635 43.7351 20.1157 43.7228 20.1288C43.7129 20.1445 43.703 20.1732 43.703 20.1941C43.703 20.2177 43.6882 20.2647 43.671 20.3013C43.6512 20.3379 43.6069 20.4555 43.5674 20.5626C43.528 20.6698 43.4836 20.7874 43.4639 20.824C43.4466 20.8606 43.4318 20.9076 43.4318 20.9311C43.4318 20.952 43.422 20.9808 43.4121 20.9965C43.3998 21.0095 43.3751 21.0618 43.3579 21.1115C43.3406 21.1611 43.311 21.2421 43.2913 21.2866C43.274 21.3336 43.2444 21.412 43.2272 21.4564C43.2075 21.5035 43.1779 21.5845 43.1606 21.6342C43.1434 21.6838 43.1187 21.7361 43.1064 21.7492C43.0965 21.7648 43.0867 21.791 43.0867 21.8119C43.0867 21.8328 43.0694 21.8877 43.0497 21.9373C42.9954 22.0654 42.951 22.183 42.9141 22.2875C42.8968 22.3372 42.8722 22.3895 42.8598 22.4025C42.85 22.4182 42.8401 22.447 42.8401 22.4679C42.8401 22.4914 42.8253 22.5384 42.808 22.575C42.7883 22.6116 42.7439 22.7292 42.7045 22.8364C42.665 22.9435 42.6207 23.0611 42.6009 23.0977C42.5837 23.1343 42.5689 23.1761 42.5689 23.1944C42.5689 23.2127 42.5492 23.265 42.522 23.3146C42.4974 23.3617 42.4678 23.4401 42.4579 23.4845C42.4506 23.5315 42.4308 23.5734 42.4185 23.5812C42.4062 23.5917 42.3963 23.6204 42.3963 23.6492C42.3963 23.6753 42.3864 23.6988 42.3741 23.6988C42.3618 23.6988 42.347 23.7328 42.3396 23.7772C42.3297 23.819 42.3026 23.9027 42.2755 23.9602C42.2484 24.0203 42.2188 24.1013 42.2114 24.1431C42.2015 24.1875 42.1843 24.2267 42.1719 24.2346C42.1596 24.245 42.1498 24.2738 42.1498 24.3025C42.1498 24.3287 42.1399 24.3522 42.1276 24.3522C42.1152 24.3522 42.1004 24.3862 42.0931 24.4306C42.0832 24.4724 42.0561 24.556 42.0289 24.6135C42.0018 24.6736 41.9722 24.7547 41.9648 24.7965C41.955 24.8409 41.9377 24.8749 41.9254 24.8749C41.9131 24.8749 41.9032 24.8932 41.9032 24.9141C41.9032 24.935 41.8933 24.9742 41.881 25.0003C41.8687 25.0238 41.8391 25.097 41.8169 25.1624C41.7923 25.2277 41.7577 25.3166 41.7405 25.3636C41.7208 25.408 41.706 25.4629 41.706 25.4864C41.706 25.5099 41.6961 25.5282 41.6813 25.5282C41.669 25.5282 41.6567 25.5465 41.6567 25.5674C41.6567 25.5884 41.6468 25.6276 41.6345 25.6537C41.5827 25.7635 41.5334 25.8994 41.5334 25.9333C41.5334 25.9542 41.5235 25.9725 41.5087 25.9725C41.4964 25.9725 41.4841 25.9908 41.4841 26.0144C41.4841 26.0379 41.4668 26.098 41.4446 26.1503C41.4224 26.2051 41.3978 26.2705 41.3855 26.2992C41.3756 26.328 41.3485 26.3959 41.3263 26.4508C41.3041 26.5057 41.2868 26.5658 41.2868 26.5867C41.2868 26.6076 41.277 26.6259 41.2646 26.6259C41.2523 26.6259 41.2326 26.6625 41.2252 26.7095C41.2153 26.7566 41.1981 26.8115 41.1882 26.835C41.1784 26.8559 41.1586 26.9029 41.1438 26.9395C41.0723 27.1199 41.0304 27.2218 41.0008 27.2976C40.9811 27.342 40.9663 27.3916 40.9663 27.4073C40.9663 27.423 40.9565 27.457 40.9441 27.4831C40.9318 27.5066 40.9121 27.5563 40.8973 27.5929C40.8825 27.6295 40.8529 27.7053 40.8283 27.7628C40.7617 27.9326 40.7296 28.0189 40.6951 28.1156C40.6779 28.1652 40.6532 28.2175 40.6409 28.2332C40.631 28.2463 40.6211 28.2724 40.6211 28.2933C40.6211 28.3142 40.6039 28.3717 40.5817 28.424C40.4905 28.6435 40.4732 28.6853 40.4732 28.701C40.4732 28.7088 40.4461 28.7794 40.4116 28.8578C40.3771 28.9362 40.3499 29.0172 40.3499 29.0355C40.3499 29.0564 40.3401 29.0826 40.3302 29.0956C40.3179 29.1113 40.2932 29.1636 40.276 29.2132C40.239 29.3178 40.1946 29.4354 40.1404 29.5634C40.1207 29.6131 40.1034 29.668 40.1034 29.6889C40.1034 29.7098 40.0935 29.7359 40.0837 29.749C40.0713 29.7647 40.0467 29.817 40.0294 29.8666C40.0122 29.9163 39.9826 29.9973 39.9629 30.0417C39.9456 30.0888 39.916 30.1672 39.8988 30.2116C39.879 30.2586 39.8494 30.3397 39.8322 30.3893C39.8149 30.439 39.7903 30.4912 39.7779 30.5069C39.7681 30.52 39.7582 30.5461 39.7582 30.567C39.7582 30.5879 39.741 30.6428 39.7212 30.6925C39.7015 30.7421 39.667 30.8205 39.6473 30.8702C39.6275 30.9198 39.6103 30.9669 39.6103 30.9747C39.6103 30.9826 39.5832 31.0531 39.5487 31.1315C39.5141 31.2099 39.487 31.291 39.487 31.3093C39.487 31.3302 39.4772 31.3563 39.4648 31.3694C39.455 31.385 39.4131 31.4844 39.3761 31.5915C39.3366 31.6987 39.2922 31.8163 39.2725 31.8529C39.2553 31.8894 39.2405 31.9313 39.2405 31.9496C39.2405 31.9678 39.2207 32.0201 39.1936 32.0698C39.169 32.1168 39.1394 32.1952 39.1295 32.2397C39.1221 32.2867 39.1024 32.3285 39.0901 32.3364C39.0777 32.3468 39.0679 32.3756 39.0679 32.4043C39.0679 32.4304 39.058 32.454 39.0457 32.454C39.0334 32.454 39.0161 32.4958 39.0087 32.548C38.9988 32.5977 38.9717 32.6787 38.9471 32.7258C38.9224 32.7728 38.8928 32.8486 38.883 32.893C38.8756 32.9401 38.8558 32.9819 38.8435 32.9897C38.8312 33.0002 38.8213 33.0289 38.8213 33.0577C38.8213 33.0838 38.8115 33.1073 38.7967 33.1073C38.7843 33.1073 38.772 33.1256 38.772 33.1465C38.772 33.1674 38.7572 33.2223 38.7375 33.2694C38.7178 33.3164 38.6857 33.3974 38.6635 33.4523C38.6413 33.5046 38.6241 33.5647 38.6241 33.5882C38.6241 33.6117 38.6142 33.63 38.5994 33.63C38.5871 33.63 38.5748 33.6483 38.5748 33.6692C38.5748 33.6901 38.5649 33.7293 38.5526 33.7555C38.5403 33.779 38.5107 33.8522 38.4885 33.9175C38.4638 33.9828 38.4293 34.0717 38.4121 34.1187C38.3923 34.1632 38.3775 34.2181 38.3775 34.2416C38.3775 34.2651 38.3677 34.2834 38.3529 34.2834C38.3406 34.2834 38.3282 34.3017 38.3282 34.3226C38.3282 34.3435 38.3184 34.3827 38.306 34.4088C38.2543 34.5186 38.205 34.6545 38.205 34.6885C38.205 34.7094 38.1951 34.7277 38.1803 34.7277C38.168 34.7277 38.1556 34.746 38.1556 34.7695C38.1556 34.793 38.1384 34.8531 38.1162 34.9054C38.094 34.9603 38.0595 35.0387 38.0422 35.0857C38.0225 35.1302 38.0077 35.185 38.0077 35.2059C38.0077 35.2295 37.9979 35.2556 37.9831 35.2634C37.9707 35.2713 37.9584 35.3026 37.9584 35.3314C37.9584 35.3575 37.9485 35.3811 37.9362 35.3811C37.9239 35.3811 37.9042 35.4176 37.8968 35.4647C37.8869 35.5117 37.8696 35.5666 37.8598 35.5901C37.808 35.6947 37.7612 35.8253 37.7612 35.8619C37.7612 35.8855 37.7513 35.9037 37.7365 35.9037C37.7242 35.9037 37.7119 35.9273 37.7119 35.9534C37.7119 35.9821 37.702 36.0109 37.6921 36.0187C37.6798 36.0266 37.6502 36.1024 37.6231 36.1886C37.5984 36.2775 37.5689 36.348 37.559 36.348C37.5467 36.348 37.5393 36.3663 37.5393 36.3899C37.5393 36.4134 37.5245 36.4683 37.5048 36.5127C37.448 36.6538 37.4012 36.774 37.3667 36.8707C37.3494 36.9204 37.3248 36.9727 37.3124 36.9883C37.3026 37.0014 37.2927 37.0302 37.2927 37.0537C37.2927 37.0746 37.2779 37.1216 37.2607 37.1582C37.2409 37.1948 37.1966 37.3124 37.1571 37.4196C37.1177 37.5267 37.0733 37.6443 37.0536 37.6809C37.0363 37.7175 37.0215 37.7645 37.0215 37.7855C37.0215 37.809 37.0116 37.8377 37.0018 37.8508C36.9895 37.8665 36.9648 37.9187 36.9475 37.9684C36.9303 38.0181 36.9007 38.0991 36.881 38.1435C36.8637 38.1905 36.8341 38.2689 36.8169 38.3134C36.7972 38.3604 36.7676 38.4414 36.7503 38.4911C36.733 38.5407 36.7084 38.593 36.6961 38.6087C36.6862 38.6218 36.6763 38.6479 36.6763 38.6688C36.6763 38.6897 36.6591 38.7446 36.6394 38.7943C36.5851 38.9223 36.5407 39.0399 36.5038 39.1445C36.4865 39.1941 36.4618 39.2464 36.4495 39.2621C36.4397 39.2751 36.4298 39.3039 36.4298 39.3274C36.4298 39.3483 36.415 39.3954 36.3977 39.4319C36.378 39.4685 36.3336 39.5861 36.2942 39.6933C36.2547 39.8004 36.2104 39.918 36.1906 39.9546C36.1734 39.9912 36.1586 40.033 36.1586 40.0513C36.1586 40.0696 36.1389 40.1219 36.1117 40.1716C36.0871 40.2186 36.0575 40.297 36.0476 40.3414C36.0402 40.3885 36.0205 40.4303 36.0082 40.4381C35.9959 40.4486 35.986 40.4773 35.986 40.5061C35.986 40.5322 35.9761 40.5557 35.9638 40.5557C35.9515 40.5557 35.9367 40.5897 35.9293 40.6341C35.9194 40.676 35.8923 40.7596 35.8652 40.8171C35.8381 40.8772 35.8085 40.9582 35.8011 41C35.7912 41.0445 35.774 41.0837 35.7616 41.0915C35.7493 41.102 35.7395 41.1307 35.7395 41.1594C35.7395 41.1856 35.7296 41.2091 35.7173 41.2091C35.7049 41.2091 35.6901 41.2431 35.6827 41.2875C35.6729 41.3293 35.6458 41.413 35.6186 41.4705C35.5915 41.5306 35.5619 41.6116 35.5545 41.6534C35.5447 41.6978 35.5274 41.7318 35.5151 41.7318C35.5028 41.7318 35.4929 41.7501 35.4929 41.771C35.4929 41.7919 35.483 41.8311 35.4707 41.8572C35.4584 41.8808 35.4288 41.9539 35.4066 42.0193C35.382 42.0846 35.3474 42.1735 35.3302 42.2205C35.3105 42.2649 35.2957 42.3198 35.2957 42.3434C35.2957 42.3669 35.2858 42.3852 35.271 42.3852C35.2587 42.3852 35.2464 42.4035 35.2464 42.4244C35.2464 42.4453 35.2365 42.4845 35.2242 42.5106C35.1724 42.6204 35.1231 42.7563 35.1231 42.7903C35.1231 42.8112 35.1132 42.8295 35.0984 42.8295C35.0861 42.8295 35.0738 42.8478 35.0738 42.8713C35.0738 42.9079 35.0269 43.0385 34.9751 43.1431C34.9653 43.1666 34.948 43.2215 34.9406 43.2685C34.9308 43.313 34.911 43.3574 34.8987 43.3652C34.8864 43.3757 34.8765 43.4044 34.8765 43.4332C34.8765 43.4593 34.8667 43.4828 34.8543 43.4828C34.842 43.4828 34.8223 43.5194 34.8149 43.5665C34.805 43.6135 34.7878 43.6684 34.7779 43.6919C34.7606 43.7311 34.7508 43.7546 34.6694 43.9585C34.6472 44.0134 34.6127 44.097 34.593 44.1467C34.5733 44.1963 34.556 44.2486 34.556 44.2643C34.556 44.2799 34.5461 44.3139 34.5338 44.34C34.5215 44.3636 34.5018 44.4132 34.487 44.4498C34.3489 44.7974 34.3193 44.8758 34.2848 44.9725C34.2675 45.0222 34.2429 45.0744 34.2306 45.0901C34.2207 45.1032 34.2108 45.1293 34.2108 45.1502C34.2108 45.1711 34.1936 45.226 34.1739 45.2757C34.1196 45.4037 34.0752 45.5213 34.0383 45.6259C34.021 45.6755 33.9963 45.7278 33.984 45.7435C33.9742 45.7566 33.9643 45.7827 33.9643 45.8036C33.9643 45.8219 33.9372 45.9029 33.9027 45.9813C33.8681 46.0597 33.841 46.1303 33.841 46.1381C33.841 46.146 33.8238 46.1956 33.8016 46.2479C33.7029 46.4805 33.6931 46.5118 33.6931 46.5458C33.6931 46.5667 33.6832 46.5929 33.6734 46.6059C33.661 46.6216 33.6364 46.6739 33.6191 46.7235C33.6019 46.7732 33.5698 46.8568 33.5501 46.9065C33.486 47.0711 33.4539 47.1522 33.4219 47.2462C33.4046 47.2959 33.38 47.3482 33.3676 47.3638C33.3578 47.3769 33.3479 47.4057 33.3479 47.4266C33.3479 47.4449 33.3183 47.5285 33.2838 47.6095C33.1211 47.9832 33.0742 48.0878 32.9584 48.3308C32.8918 48.4746 32.8006 48.6575 32.7587 48.7359C32.7143 48.8143 32.6724 48.9006 32.665 48.9241C32.6576 48.9502 32.6428 48.9711 32.6305 48.9711C32.6181 48.9711 32.6083 48.9842 32.6083 48.9999C32.6083 49.0156 32.5639 49.0992 32.5096 49.1854C32.4554 49.2717 32.411 49.3475 32.411 49.3553C32.411 49.3632 32.3864 49.4024 32.3568 49.4416C32.3247 49.4808 32.2828 49.5383 32.2631 49.5722C32.0708 49.878 31.6566 50.3641 31.3336 50.6673C31.1783 50.8136 30.769 51.0985 30.5644 51.2057C30.3301 51.3285 30.1748 51.4017 30.1428 51.4017C30.1304 51.4017 30.0984 51.4121 30.0737 51.4252C29.9628 51.4853 29.9085 51.5036 29.588 51.5872C29.4549 51.6238 29.1171 51.6865 28.8607 51.7205C28.5895 51.7597 27.6008 51.7597 27.3321 51.7205C27.2162 51.7048 27.0338 51.6787 26.9253 51.663C26.8168 51.6473 26.7058 51.6238 26.6787 51.6107C26.6516 51.6003 26.6023 51.582 26.5678 51.5742C26.3829 51.535 26.2275 51.4853 26.1191 51.4252C26.0944 51.4121 26.0624 51.4017 26.0476 51.4017C25.9785 51.4017 25.4706 51.1351 25.2241 50.9678C24.731 50.6359 24.2354 50.1211 23.8631 49.5565C23.7768 49.4285 23.7004 49.3109 23.6881 49.2978C23.5599 49.1306 22.9188 47.8055 22.9188 47.7062C22.9188 47.6984 22.8917 47.6278 22.8572 47.5494C22.8227 47.471 22.7956 47.39 22.7956 47.3717C22.7956 47.3508 22.7857 47.3246 22.7758 47.3116C22.7635 47.2959 22.7389 47.2436 22.7216 47.194C22.6846 47.0894 22.6402 46.9718 22.586 46.8438C22.5663 46.7941 22.549 46.7366 22.549 46.7131C22.549 46.6896 22.5416 46.6713 22.5293 46.6713C22.5194 46.6713 22.4898 46.6007 22.4652 46.5118C22.4381 46.4256 22.4085 46.3498 22.3961 46.342C22.3863 46.3341 22.3764 46.3054 22.3764 46.2766C22.3764 46.2505 22.3666 46.227 22.3518 46.227C22.3394 46.227 22.3271 46.2087 22.3271 46.1852C22.3271 46.1486 22.2803 46.0179 22.2285 45.9134C22.2186 45.8898 22.2014 45.835 22.1915 45.7879C22.1841 45.7409 22.1644 45.7043 22.1521 45.7043C22.1397 45.7043 22.1299 45.6808 22.1299 45.6546C22.1299 45.6259 22.12 45.5945 22.1052 45.5867C22.0929 45.5788 22.0806 45.5527 22.0806 45.5292C22.0806 45.5083 22.0633 45.4508 22.0436 45.4011C22.0239 45.3515 21.9893 45.2731 21.9696 45.2234C21.9499 45.1738 21.9326 45.1163 21.9326 45.0927C21.9326 45.0692 21.9228 45.0509 21.908 45.0509C21.8957 45.0509 21.8833 45.0326 21.8833 45.0117C21.8833 44.9777 21.834 44.8418 21.7822 44.7321C21.7699 44.7059 21.7601 44.6667 21.7601 44.6458C21.7601 44.6249 21.7502 44.6066 21.7354 44.6066C21.7231 44.6066 21.7107 44.5883 21.7107 44.5648C21.7107 44.5413 21.6959 44.4864 21.6762 44.442C21.659 44.3949 21.6244 44.3061 21.5998 44.2407C21.5776 44.1754 21.548 44.1022 21.5357 44.0787C21.5234 44.0526 21.5135 44.0134 21.5135 43.9925C21.5135 43.9716 21.5036 43.9533 21.4888 43.9533C21.4765 43.9533 21.4642 43.935 21.4642 43.9114C21.4642 43.8879 21.4469 43.8304 21.4272 43.7808C21.4075 43.7311 21.373 43.6527 21.3532 43.6031C21.3335 43.5534 21.3163 43.4959 21.3163 43.4724C21.3163 43.4489 21.3064 43.4306 21.2916 43.4306C21.2793 43.4306 21.2669 43.407 21.2669 43.3809C21.2669 43.3522 21.2571 43.3234 21.2448 43.313C21.2324 43.3051 21.2127 43.2633 21.2053 43.2163C21.1954 43.1718 21.1659 43.096 21.1412 43.049C21.1166 43.0019 21.0894 42.9209 21.0796 42.8713C21.0722 42.819 21.0549 42.7772 21.0426 42.7772C21.0303 42.7772 21.0204 42.7537 21.0204 42.7275C21.0204 42.6988 21.0105 42.67 20.9982 42.6596C20.9859 42.6517 20.9662 42.6099 20.9588 42.5629C20.9489 42.5185 20.9193 42.4401 20.8947 42.393C20.8675 42.3434 20.8478 42.2911 20.8478 42.2728C20.8478 42.2545 20.833 42.2127 20.8158 42.1761C20.796 42.1395 20.7517 42.0219 20.7122 41.9147C20.6752 41.8076 20.6333 41.7083 20.6235 41.6926C20.6111 41.6795 20.6013 41.6534 20.6013 41.6325C20.6013 41.6142 20.5741 41.5332 20.5396 41.4548C20.5051 41.3764 20.478 41.3058 20.478 41.298C20.478 41.2901 20.4607 41.2431 20.441 41.1934C20.4213 41.1438 20.3868 41.0654 20.367 41.0157C20.3473 40.9661 20.3301 40.9112 20.3301 40.8903C20.3301 40.8694 20.3202 40.8432 20.3103 40.8302C20.298 40.8145 20.2734 40.7622 20.2561 40.7125C20.2388 40.6629 20.2068 40.5793 20.1871 40.5296C20.123 40.365 20.0909 40.2839 20.0589 40.1898C20.0416 40.1402 20.0169 40.0879 20.0046 40.0722C19.9947 40.0592 19.9849 40.033 19.9849 40.0121C19.9849 39.9912 19.9676 39.9363 19.9479 39.8867C19.8937 39.7586 19.8493 39.641 19.8123 39.5365C19.795 39.4868 19.7704 39.4346 19.7581 39.4189C19.7482 39.4058 19.7383 39.3797 19.7383 39.3588C19.7383 39.3405 19.7112 39.2594 19.6767 39.181C19.6422 39.1026 19.6151 39.0321 19.6151 39.0242C19.6151 39.0086 19.5978 38.9667 19.5066 38.7472C19.4844 38.6949 19.4671 38.6374 19.4671 38.6165C19.4671 38.5956 19.4573 38.5695 19.4474 38.5564C19.4351 38.5407 19.4104 38.4885 19.3932 38.4388C19.3759 38.3892 19.3439 38.3055 19.3241 38.2559C19.3044 38.2062 19.2798 38.1409 19.2699 38.1121C19.2576 38.0834 19.2304 38.0128 19.2083 37.9553C19.1861 37.8978 19.1565 37.8299 19.1442 37.8064C19.1318 37.7802 19.122 37.7462 19.122 37.7306C19.122 37.7149 19.1047 37.66 19.0825 37.6077C19.0431 37.5084 19.0332 37.4875 18.9617 37.302C18.9395 37.2445 18.9124 37.1791 18.9001 37.1582C18.8902 37.1347 18.8729 37.0798 18.8631 37.0328C18.8557 36.9857 18.836 36.9491 18.8236 36.9491C18.8113 36.9491 18.8014 36.9308 18.8014 36.9099C18.8014 36.889 18.7842 36.8289 18.762 36.774C18.7398 36.7192 18.7127 36.6512 18.7028 36.6225C18.6905 36.5937 18.6658 36.5284 18.6437 36.4735C18.6215 36.4212 18.6042 36.3611 18.6042 36.3376C18.6042 36.3141 18.5943 36.2958 18.5796 36.2958C18.5672 36.2958 18.5549 36.2775 18.5549 36.2566C18.5549 36.2226 18.5056 36.0867 18.4538 35.9769C18.4415 35.9508 18.4316 35.9116 18.4316 35.8907C18.4316 35.8698 18.4218 35.8515 18.407 35.8515C18.3946 35.8515 18.3823 35.8332 18.3823 35.8097C18.3823 35.7861 18.3675 35.7313 18.3478 35.6868C18.3305 35.6398 18.296 35.5509 18.2714 35.4856C18.2492 35.4203 18.2196 35.3471 18.2073 35.3236C18.1949 35.2974 18.1851 35.2582 18.1851 35.2373C18.1851 35.2164 18.1752 35.1981 18.1629 35.1981C18.1506 35.1981 18.1333 35.1641 18.1234 35.1197C18.116 35.0779 18.0865 34.9969 18.0593 34.9368C18.0322 34.8793 18.0051 34.7956 17.9952 34.7538C17.9878 34.7094 17.973 34.6754 17.9607 34.6754C17.9484 34.6754 17.9385 34.6519 17.9385 34.6258C17.9385 34.597 17.9287 34.5683 17.9163 34.5578C17.904 34.55 17.8867 34.5108 17.8769 34.4663C17.8695 34.4245 17.8399 34.3435 17.8128 34.2834C17.7857 34.2259 17.7585 34.1423 17.7487 34.1004C17.7413 34.056 17.7265 34.022 17.7142 34.022C17.7018 34.022 17.692 33.9985 17.692 33.9724C17.692 33.9436 17.6821 33.9149 17.6698 33.9044C17.6575 33.8966 17.6377 33.8548 17.6303 33.8077C17.6205 33.7633 17.5909 33.6849 17.5662 33.6379C17.5391 33.5882 17.5194 33.5359 17.5194 33.5176C17.5194 33.4993 17.5046 33.4575 17.4873 33.4209C17.4676 33.3844 17.4232 33.2667 17.3838 33.1596C17.3443 33.0524 17.3 32.9348 17.2802 32.8982C17.263 32.8617 17.2482 32.8146 17.2482 32.7911C17.2482 32.7702 17.2383 32.7414 17.2285 32.7258C17.2161 32.7127 17.1915 32.6604 17.1742 32.6108C17.1372 32.5062 17.0929 32.3886 17.0386 32.2606C17.0189 32.2109 17.0016 32.156 17.0016 32.1351C17.0016 32.1142 16.9918 32.0881 16.9819 32.0724C16.9696 32.0593 16.9449 32.0071 16.9277 31.9574C16.9104 31.9077 16.8808 31.8267 16.8611 31.7797C16.8438 31.7352 16.8143 31.6568 16.797 31.6098C16.7773 31.5654 16.7477 31.4844 16.7304 31.4347C16.7132 31.385 16.6885 31.3328 16.6762 31.3197C16.6663 31.304 16.6565 31.2753 16.6565 31.2544C16.6565 31.2308 16.6417 31.1838 16.6244 31.1472C16.6047 31.1106 16.5603 30.993 16.5209 30.8859C16.4814 30.7787 16.437 30.6611 16.4173 30.6245C16.4 30.5879 16.3853 30.5409 16.3853 30.5174C16.3853 30.4965 16.3754 30.4677 16.3655 30.452C16.3532 30.439 16.3285 30.3867 16.3113 30.337C16.2743 30.2325 16.2299 30.1149 16.1757 29.9868C16.156 29.9372 16.1387 29.8823 16.1387 29.8614C16.1387 29.8405 16.1288 29.8143 16.119 29.7987C16.1067 29.7856 16.082 29.7333 16.0647 29.6837C16.0475 29.634 16.0154 29.5504 15.9957 29.5007C15.976 29.4511 15.9513 29.3857 15.9415 29.357C15.9291 29.3282 15.902 29.2577 15.8798 29.2002C15.8576 29.1427 15.828 29.0747 15.8157 29.0512C15.8034 29.0251 15.7935 28.9911 15.7935 28.9728C15.7935 28.9545 15.7664 28.8813 15.7319 28.8108C15.6974 28.7402 15.6703 28.6696 15.6703 28.6566C15.6703 28.6435 15.653 28.5938 15.6333 28.5442C15.6136 28.4945 15.579 28.4161 15.5593 28.3665C15.5396 28.3168 15.5223 28.2593 15.5223 28.2358C15.5223 28.2123 15.5125 28.194 15.4977 28.194C15.4853 28.194 15.473 28.1783 15.473 28.1574C15.473 28.1391 15.4558 28.0868 15.436 28.0476C15.4163 28.0058 15.3991 27.9509 15.3991 27.9274C15.3991 27.9039 15.3892 27.8751 15.3744 27.8673C15.3621 27.8595 15.3497 27.8281 15.3497 27.7994C15.3497 27.7732 15.3399 27.7497 15.3251 27.7497C15.3128 27.7497 15.3004 27.7314 15.3004 27.7079C15.3004 27.6844 15.2856 27.6295 15.2659 27.585C15.2487 27.538 15.2141 27.4491 15.1895 27.3838C15.1673 27.3185 15.1377 27.2453 15.1254 27.2218C15.1131 27.1956 15.1032 27.1564 15.1032 27.1355C15.1032 27.1146 15.0933 27.0963 15.0785 27.0963C15.0662 27.0963 15.0539 27.078 15.0539 27.0545C15.0539 27.031 15.0391 26.9761 15.0194 26.9317C15.0021 26.8846 14.9676 26.7958 14.9429 26.7304C14.9183 26.6651 14.8739 26.5527 14.8418 26.4795C14.8098 26.4064 14.7827 26.3332 14.7827 26.3175C14.7827 26.3018 14.7605 26.2469 14.7358 26.1973C14.7087 26.1476 14.6791 26.064 14.6693 26.0144C14.6619 25.9621 14.6446 25.9203 14.6323 25.9203C14.62 25.9203 14.6101 25.9046 14.6101 25.8837C14.6101 25.8654 14.5928 25.8131 14.5731 25.7739C14.5534 25.7321 14.5361 25.6798 14.5361 25.6563C14.5361 25.6354 14.5263 25.6066 14.5164 25.591C14.5041 25.5779 14.4794 25.5256 14.4622 25.476C14.4252 25.3714 14.3808 25.2538 14.3266 25.1258C14.3068 25.0761 14.2896 25.0238 14.2896 25.0082C14.2896 24.9925 14.2674 24.9402 14.2403 24.8879C14.2131 24.8357 14.191 24.7808 14.191 24.7625C14.191 24.7442 14.1762 24.7024 14.1589 24.6658C14.1392 24.6292 14.0948 24.5116 14.0554 24.4044C14.0159 24.2973 13.9715 24.1797 13.9518 24.1431C13.9345 24.1065 13.9197 24.0595 13.9197 24.0359C13.9197 24.015 13.9099 23.9863 13.9 23.9706C13.8877 23.9575 13.863 23.9053 13.8458 23.8556C13.8088 23.7511 13.7644 23.6335 13.7102 23.5054C13.6905 23.4558 13.6732 23.4035 13.6732 23.3878C13.6732 23.3721 13.651 23.3199 13.6239 23.2676C13.5968 23.2153 13.5746 23.163 13.5746 23.1474C13.5746 23.1317 13.5573 23.0794 13.5376 23.0298C13.4834 22.9017 13.439 22.7841 13.402 22.6796C13.3847 22.6299 13.3601 22.5776 13.3478 22.5646C13.3379 22.5489 13.328 22.5227 13.328 22.5018C13.328 22.4835 13.3009 22.4025 13.2664 22.3241C13.2319 22.2457 13.2048 22.1752 13.2048 22.1673C13.2048 22.1595 13.1875 22.1124 13.1678 22.0628C13.148 22.0131 13.1135 21.9347 13.0938 21.8851C13.0741 21.8354 13.0568 21.7805 13.0568 21.7596C13.0568 21.7387 13.047 21.7126 13.0371 21.6969C13.0248 21.6838 13.0001 21.6315 12.9829 21.5819C12.9459 21.4774 12.9015 21.3597 12.8473 21.2317C12.8275 21.182 12.8103 21.1245 12.8103 21.101C12.8103 21.0775 12.8004 21.0592 12.7856 21.0592C12.7733 21.0592 12.761 21.0357 12.761 21.0095C12.761 20.9808 12.7511 20.9494 12.7363 20.9416C12.724 20.9337 12.7117 20.9076 12.7117 20.8841C12.7117 20.8632 12.6944 20.8031 12.6722 20.7508C12.6328 20.6515 12.6229 20.6306 12.5514 20.445C12.5292 20.3875 12.5021 20.3222 12.4898 20.3013C12.4799 20.2778 12.4626 20.2229 12.4528 20.1758C12.4454 20.1288 12.4281 20.0922 12.4207 20.0922C12.4109 20.0922 12.3887 20.0426 12.3714 19.9798C12.3517 19.9197 12.3221 19.8309 12.3024 19.7838C12.2827 19.7394 12.2506 19.661 12.2309 19.6113C12.2112 19.5617 12.1939 19.5042 12.1939 19.4807C12.1939 19.4571 12.184 19.4388 12.1692 19.4388C12.1569 19.4388 12.1446 19.4205 12.1446 19.3996C12.1446 19.3657 12.0953 19.2298 12.0435 19.12C12.0312 19.0939 12.0213 19.0547 12.0213 19.0338C12.0213 19.0128 12.0115 18.9945 11.9967 18.9945C11.9843 18.9945 11.972 18.9763 11.972 18.9527C11.972 18.9292 11.9572 18.8743 11.9375 18.8299C11.9202 18.7829 11.8857 18.694 11.8611 18.6287C11.8389 18.5633 11.8093 18.4901 11.797 18.4666C11.7846 18.4405 11.7748 18.4013 11.7748 18.3804C11.7748 18.3595 11.7649 18.3412 11.7526 18.3412C11.7402 18.3412 11.723 18.3072 11.7131 18.2628C11.7057 18.221 11.6761 18.1399 11.649 18.0798C11.6219 18.0223 11.5948 17.9387 11.5849 17.8969C11.5775 17.8525 11.5627 17.8185 11.5504 17.8185C11.5381 17.8185 11.5282 17.795 11.5282 17.7688C11.5282 17.7401 11.5183 17.7113 11.506 17.7009C11.4937 17.693 11.4764 17.6538 11.4666 17.6094C11.4592 17.5676 11.4296 17.4866 11.4025 17.4265C11.3754 17.369 11.3482 17.2853 11.3384 17.2435C11.331 17.1991 11.3162 17.1651 11.3039 17.1651C11.2915 17.1651 11.2817 17.1416 11.2817 17.1155C11.2817 17.0867 11.2718 17.058 11.2595 17.0475C11.2471 17.0397 11.2274 16.9979 11.22 16.9508C11.2102 16.9064 11.1806 16.828 11.1559 16.7809C11.1288 16.7313 11.1091 16.679 11.1091 16.6607C11.1091 16.6424 11.0943 16.6006 11.077 16.564C11.0573 16.5274 11.0129 16.4098 10.9735 16.3027C10.934 16.1955 10.8896 16.0779 10.8699 16.0413C10.8527 16.0047 10.8379 15.9577 10.8379 15.9368C10.8379 15.9133 10.828 15.8845 10.8181 15.8714C10.8058 15.8558 10.7812 15.8035 10.7639 15.7538C10.7269 15.6493 10.6825 15.5317 10.6283 15.4036C10.6086 15.354 10.5913 15.2991 10.5913 15.2782C10.5913 15.2573 10.5815 15.2311 10.5716 15.2181C10.5593 15.2024 10.5346 15.1501 10.5174 15.1005C10.5001 15.0508 10.4705 14.9698 10.4508 14.9228C10.4335 14.8783 10.4039 14.7999 10.3867 14.7529C10.367 14.7084 10.3374 14.6274 10.3201 14.5778C10.3029 14.5281 10.2782 14.4758 10.2659 14.4602C10.256 14.4471 10.2461 14.421 10.2461 14.4001C10.2461 14.3791 10.2289 14.3243 10.2092 14.2746C10.1894 14.225 10.1549 14.1466 10.1352 14.0969C10.1155 14.0472 10.0982 14.0002 10.0982 13.9924C10.0982 13.9845 10.0711 13.914 10.0366 13.8355C10.0021 13.7571 9.97494 13.6761 9.97494 13.6578C9.97494 13.6369 9.96508 13.6108 9.95522 13.5977C9.94289 13.582 9.91824 13.5298 9.90098 13.4801C9.864 13.3756 9.81962 13.258 9.76538 13.1299C9.74565 13.0803 9.72839 13.0254 9.72839 13.0045C9.72839 12.9836 9.71853 12.9574 9.70867 12.9444C9.69634 12.9287 9.67169 12.8764 9.65443 12.8267C9.63717 12.7771 9.60512 12.6935 9.5854 12.6438C9.56567 12.5941 9.54102 12.5288 9.53115 12.5001C9.51883 12.4713 9.49171 12.4007 9.46952 12.3433C9.44733 12.2858 9.42021 12.2204 9.40788 12.1995C9.39802 12.176 9.38076 12.1211 9.3709 12.0741C9.3635 12.027 9.34378 11.9904 9.33145 11.9904C9.31912 11.9904 9.30926 11.9617 9.30926 11.9251C9.30926 11.8885 9.2994 11.8598 9.2846 11.8598C9.27228 11.8598 9.25995 11.8415 9.25995 11.8179C9.25995 11.7944 9.24516 11.7395 9.22543 11.6951C9.20817 11.6481 9.17366 11.5697 9.15147 11.5148C9.12928 11.4625 9.11202 11.4024 9.11202 11.3789C9.11202 11.3554 9.10216 11.3371 9.08736 11.3371C9.07504 11.3371 9.06271 11.3135 9.06271 11.2874C9.06271 11.2587 9.05285 11.2299 9.04052 11.2195C9.02819 11.2116 9.00847 11.1672 8.99861 11.1228C8.99121 11.0757 8.97395 11.0208 8.96409 10.9973C8.91231 10.8928 8.86547 10.7621 8.86547 10.7255C8.86547 10.702 8.85561 10.6837 8.84081 10.6837C8.82849 10.6837 8.81616 10.6654 8.81616 10.6445C8.81616 10.6105 8.76685 10.4746 8.71507 10.3648C8.70274 10.3387 8.69288 10.2995 8.69288 10.2786C8.69288 10.2577 8.68302 10.2394 8.66823 10.2394C8.6559 10.2394 8.64357 10.2211 8.64357 10.1976C8.64357 10.1741 8.62631 10.114 8.60412 10.0617C8.58194 10.0068 8.54988 9.92578 8.53016 9.87874C8.51044 9.8317 8.49564 9.77682 8.49564 9.75591C8.49564 9.735 8.48578 9.71671 8.47099 9.71671C8.45866 9.71671 8.44633 9.68796 8.44633 9.65137C8.44633 9.61478 8.43647 9.58603 8.42414 9.58603C8.41182 9.58603 8.39456 9.55206 8.3847 9.50763C8.3773 9.46581 8.34771 9.38479 8.32059 9.32468C8.29347 9.26719 8.26635 9.18356 8.25649 9.14174C8.24909 9.09731 8.2343 9.06334 8.22197 9.06334C8.20964 9.06334 8.19978 9.04766 8.19978 9.02675C8.19978 9.00845 8.18252 8.95618 8.1628 8.91698C8.14308 8.87517 8.12582 8.8229 8.12582 8.80199C8.12582 8.77847 8.11596 8.74972 8.10609 8.73665C8.09377 8.72097 8.06911 8.6687 8.05185 8.61905C8.01734 8.52235 7.97049 8.40213 7.91378 8.261C7.89406 8.21657 7.87927 8.16691 7.87927 8.15123C7.87927 8.13555 7.85708 8.08328 7.82996 8.03101C7.80284 7.97874 7.78065 7.92386 7.78065 7.90557C7.78065 7.88727 7.76585 7.84546 7.7486 7.80887C7.72887 7.77228 7.68449 7.65467 7.64504 7.54752C7.6056 7.44037 7.56122 7.32276 7.54149 7.28617C7.52423 7.24958 7.50944 7.20515 7.50944 7.18686C7.50944 7.16857 7.49958 7.13459 7.48725 7.10846C7.43301 6.99608 7.33686 6.68507 7.33686 6.62235C7.33686 6.59883 7.32699 6.58053 7.31713 6.58053C7.30481 6.58053 7.28262 6.51781 7.26782 6.44202C7.25303 6.36884 7.23331 6.26953 7.22591 6.22771C7.21605 6.18328 7.19879 6.12579 7.18893 6.09704C7.1766 6.06829 7.15441 5.96114 7.13962 5.86183C7.12482 5.7599 7.10263 5.60832 7.08784 5.52207C6.99662 4.91575 7.02127 4.15784 7.14948 3.57503C7.1692 3.48095 7.19386 3.36857 7.20372 3.32675C7.21358 3.28232 7.22837 3.23528 7.2407 3.22221C7.25056 3.20653 7.26782 3.14381 7.27768 3.0837C7.28755 3.02359 7.30234 2.97393 7.31467 2.97393C7.32699 2.97393 7.33686 2.94519 7.33686 2.9086C7.33686 2.87201 7.34918 2.84326 7.36151 2.84326C7.3763 2.84326 7.38617 2.82758 7.38617 2.80667C7.38617 2.78576 7.42068 2.69168 7.46013 2.60021C7.50204 2.50612 7.5341 2.42249 7.5341 2.41465C7.5341 2.40681 7.57354 2.33625 7.62039 2.25784C7.66723 2.17944 7.70668 2.10103 7.70668 2.08535C7.70668 2.07228 7.71654 2.05922 7.72641 2.05922C7.73873 2.05922 7.75846 2.03308 7.77325 1.99911C7.85461 1.81355 8.41921 1.15495 8.6633 0.961557C8.71014 0.924968 8.75945 0.883153 8.77424 0.867472C8.83835 0.807362 9.28214 0.525106 9.44486 0.444088C9.71607 0.305574 9.79003 0.274212 9.98727 0.216716C10.0686 0.193195 10.1574 0.161833 10.1845 0.151379C10.2437 0.125244 10.4705 0.0782016 10.685 0.0494533C10.7713 0.036386 10.8477 0.0180916 10.8576 0.0102512C10.8822 -0.0158836 12.184 0.0128647 12.3665 0.0416129C12.7832 0.11479 12.9064 0.140925 12.9237 0.156606C12.9335 0.169673 12.9631 0.177514 12.9878 0.177514C13.0149 0.177514 13.0938 0.195808 13.1628 0.219329C13.2984 0.263758 13.3354 0.276826 13.4809 0.344776C13.5302 0.368298 13.5795 0.386592 13.5943 0.386592C13.6707 0.386592 14.1959 0.721117 14.44 0.924968C14.7802 1.20984 15.4262 2.03831 15.5864 2.39897C15.5963 2.41988 15.6111 2.4434 15.6185 2.45124C15.6382 2.46953 15.7368 2.65248 15.8009 2.79099C15.8305 2.85633 15.8601 2.91382 15.87 2.92166C15.8897 2.94257 15.9661 3.1229 15.9661 3.15426C15.9661 3.16995 15.9735 3.18301 15.9858 3.18301C15.9957 3.18301 16.0179 3.22221 16.0376 3.26664C16.0549 3.31369 16.0869 3.3947 16.1067 3.44436C16.1584 3.57242 16.2151 3.71094 16.2398 3.7632C16.2521 3.78934 16.262 3.82854 16.262 3.84945C16.262 3.87036 16.2743 3.88865 16.2866 3.88865C16.3014 3.88865 16.3113 3.90695 16.3113 3.93047C16.3113 3.96706 16.3581 4.09773 16.4099 4.20227C16.4198 4.22579 16.437 4.28067 16.4444 4.3251C16.4543 4.37214 16.4839 4.45578 16.5085 4.51066C16.5332 4.56554 16.5628 4.64656 16.5726 4.68838C16.5825 4.73019 16.5973 4.77462 16.6071 4.7903C16.617 4.80337 16.6565 4.90529 16.6934 5.01245C16.7304 5.1196 16.7699 5.21891 16.7822 5.23459C16.7921 5.24766 16.8069 5.30516 16.8167 5.35743C16.8266 5.41231 16.8438 5.45674 16.8562 5.45674C16.8685 5.45674 16.8784 5.48549 16.8784 5.52207C16.8784 5.55866 16.8907 5.58741 16.903 5.58741C16.9178 5.58741 16.9277 5.60571 16.9277 5.62923C16.9277 5.66843 16.977 5.80172 17.0287 5.90626C17.0411 5.93239 17.0509 5.96637 17.0509 5.98205C17.0509 6.01079 17.1052 6.15715 17.152 6.24601C17.1644 6.27214 17.1742 6.30612 17.1742 6.3218C17.1742 6.35055 17.2285 6.4969 17.2753 6.58576C17.2876 6.61189 17.2975 6.64587 17.2975 6.66155C17.2975 6.67723 17.3147 6.73211 17.3369 6.78438C17.4356 7.01698 17.4454 7.04835 17.4454 7.08232C17.4454 7.10323 17.4553 7.12936 17.4676 7.14243C17.4775 7.15811 17.5071 7.22606 17.5317 7.29924C17.5564 7.3698 17.5933 7.47696 17.618 7.53445C17.6427 7.59195 17.6698 7.66774 17.6772 7.70433C17.6969 7.77228 17.7092 7.80887 17.7758 7.9709C17.798 8.02317 17.8152 8.08328 17.8152 8.1068C17.8152 8.13033 17.8276 8.14862 17.8399 8.14862C17.8547 8.14862 17.8646 8.17737 17.8646 8.21396C17.8646 8.25055 17.8744 8.27929 17.8867 8.27929C17.8991 8.27929 17.9163 8.32372 17.9262 8.37599C17.9361 8.43087 17.9508 8.48576 17.9607 8.50144C17.973 8.51451 18.0396 8.69222 18.1111 8.89346C18.1826 9.0947 18.2492 9.2698 18.2615 9.28548C18.2714 9.29855 18.2862 9.35605 18.296 9.40832C18.3059 9.4632 18.3231 9.50763 18.3355 9.50763C18.3478 9.50763 18.3577 9.53115 18.3577 9.55728C18.3577 9.58603 18.3675 9.61478 18.3798 9.62523C18.3922 9.63307 18.4119 9.6775 18.4218 9.72193C18.4292 9.76898 18.4464 9.82386 18.4563 9.84738C18.5031 9.93885 18.5549 10.08 18.5549 10.1061C18.5549 10.1218 18.5672 10.1584 18.5796 10.1871C18.5943 10.2159 18.6165 10.2629 18.6289 10.2917C18.6437 10.3204 18.6535 10.357 18.6535 10.3727C18.6535 10.3884 18.6708 10.4433 18.693 10.4955C18.7891 10.7255 18.8014 10.7595 18.8014 10.7856C18.8014 10.8013 18.8113 10.8353 18.8236 10.8614C18.8655 10.945 18.9247 11.0966 18.9247 11.1201C18.9247 11.1332 18.9469 11.1907 18.9716 11.2482C18.9987 11.3057 19.0283 11.3893 19.0381 11.4311C19.048 11.473 19.0751 11.5435 19.0998 11.5906C19.1244 11.635 19.1515 11.716 19.1614 11.7657C19.1688 11.8179 19.1861 11.8676 19.1984 11.8754C19.2107 11.8833 19.2206 11.912 19.2206 11.9408C19.2206 11.9669 19.2304 11.9904 19.2428 11.9904C19.2551 11.9904 19.2724 12.0375 19.2822 12.095C19.2921 12.1525 19.3093 12.1995 19.3217 12.1995C19.334 12.1995 19.3439 12.2152 19.3439 12.2309C19.3439 12.2753 19.5904 12.9626 19.6175 12.994C19.6299 13.0097 19.6397 13.0358 19.6397 13.0567C19.6397 13.0907 19.6915 13.2292 19.7408 13.3285C19.7531 13.3547 19.763 13.3886 19.763 13.4043C19.763 13.42 19.7803 13.4723 19.8 13.5219C19.8197 13.5716 19.8542 13.65 19.8739 13.6996C19.8937 13.7493 19.9109 13.8016 19.9109 13.8173C19.9109 13.8329 19.9208 13.8669 19.9331 13.893C19.98 13.9819 20.0342 14.1283 20.0342 14.157C20.0342 14.1727 20.0465 14.2093 20.0589 14.238C20.0736 14.2668 20.0958 14.3138 20.1082 14.3426C20.123 14.3713 20.1328 14.4079 20.1328 14.4236C20.1328 14.4497 20.1451 14.4837 20.2413 14.7137C20.2635 14.7659 20.2807 14.8208 20.2807 14.8365C20.2807 14.8522 20.2906 14.8862 20.3029 14.9123C20.3449 14.9959 20.404 15.1475 20.404 15.171C20.404 15.1841 20.4262 15.2416 20.4509 15.2991C20.478 15.3566 20.5076 15.4402 20.5174 15.482C20.5273 15.5239 20.5544 15.5944 20.5791 15.6415C20.6037 15.6859 20.6308 15.7669 20.6407 15.8166C20.6481 15.8688 20.6654 15.9106 20.6777 15.9106C20.69 15.9106 20.6999 15.9394 20.6999 15.976C20.6999 16.0126 20.7097 16.0413 20.7221 16.0413C20.7344 16.0413 20.7517 16.0884 20.7615 16.1459C20.7714 16.2034 20.7886 16.2504 20.801 16.2504C20.8133 16.2504 20.8232 16.2739 20.8232 16.3001C20.8232 16.3288 20.8355 16.3602 20.8478 16.368C20.8626 16.3758 20.8725 16.402 20.8725 16.4255C20.8725 16.4464 20.8873 16.5013 20.907 16.5457C20.9267 16.5928 20.9711 16.7182 21.0081 16.8254C21.0451 16.9325 21.087 17.0318 21.0968 17.0449C21.1092 17.0606 21.119 17.0867 21.119 17.1076C21.119 17.1285 21.1363 17.186 21.1585 17.2383C21.2546 17.4683 21.2669 17.5023 21.2669 17.5284C21.2669 17.5441 21.2768 17.578 21.2891 17.6042C21.336 17.693 21.3902 17.8394 21.3902 17.8681C21.3902 17.8838 21.4001 17.9178 21.4124 17.9439C21.4593 18.0328 21.5135 18.1791 21.5135 18.2079C21.5135 18.2236 21.5258 18.2602 21.5382 18.2889C21.5529 18.3177 21.5751 18.3647 21.5875 18.3934C21.6023 18.4222 21.6121 18.4588 21.6121 18.4745C21.6121 18.4901 21.6294 18.5424 21.6491 18.5921C21.6688 18.6417 21.7033 18.7201 21.7231 18.7698C21.7428 18.8194 21.7601 18.8743 21.7601 18.8952C21.7601 18.9161 21.7699 18.9423 21.7822 18.958C21.7921 18.971 21.8611 19.1461 21.9326 19.3474C22.0041 19.5486 22.0707 19.7237 22.083 19.7394C22.0929 19.7525 22.1077 19.81 22.1175 19.8622C22.1274 19.9171 22.1447 19.9615 22.157 19.9615C22.1693 19.9615 22.1792 19.9851 22.1792 20.0112C22.1792 20.0399 22.1915 20.0713 22.2038 20.0791C22.2186 20.087 22.2285 20.1131 22.2285 20.1366C22.2285 20.1575 22.2458 20.215 22.2655 20.2647C22.2852 20.3144 22.3197 20.3928 22.3394 20.4424C22.3592 20.4921 22.3764 20.5443 22.3764 20.56C22.3764 20.5757 22.3888 20.6123 22.4011 20.641C22.4159 20.6698 22.4381 20.7168 22.4504 20.7456C22.4652 20.7743 22.475 20.8109 22.475 20.8266C22.475 20.8553 22.5293 21.0017 22.5761 21.0906C22.5885 21.1167 22.5983 21.1507 22.5983 21.1664C22.5983 21.182 22.6156 21.2343 22.6353 21.284C22.655 21.3336 22.6895 21.412 22.7093 21.4617C22.729 21.5113 22.7463 21.5662 22.7463 21.5871C22.7463 21.608 22.7561 21.6342 22.7684 21.6498C22.7783 21.6629 22.8079 21.7309 22.8325 21.804C22.8572 21.8746 22.8942 21.9818 22.9188 22.0393C22.9435 22.0967 22.9706 22.1725 22.978 22.2091C22.9977 22.2771 23.0101 22.3137 23.0766 22.4757C23.0988 22.528 23.1161 22.5881 23.1161 22.6116C23.1161 22.6351 23.1284 22.6534 23.1407 22.6534C23.1555 22.6534 23.1654 22.6822 23.1654 22.7188C23.1654 22.7553 23.1752 22.7841 23.1876 22.7841C23.1999 22.7841 23.2172 22.8285 23.227 22.8808C23.2369 22.9357 23.2517 22.9906 23.2615 23.0062C23.2739 23.0193 23.3404 23.197 23.4119 23.3983C23.4834 23.5995 23.55 23.7746 23.5623 23.7903C23.5722 23.8033 23.587 23.8608 23.5968 23.9131C23.6067 23.968 23.624 24.0124 23.6363 24.0124C23.6486 24.0124 23.6585 24.0359 23.6585 24.0621C23.6585 24.0908 23.6684 24.1196 23.6807 24.13C23.693 24.1379 23.7127 24.1823 23.7226 24.2267C23.73 24.2738 23.7472 24.3287 23.7571 24.3522C23.804 24.4436 23.8557 24.5848 23.8557 24.6109C23.8557 24.6266 23.8681 24.6632 23.8804 24.6919C23.8952 24.7207 23.9174 24.7677 23.9297 24.7965C23.9445 24.8252 23.9543 24.8618 23.9543 24.8775C23.9543 24.8932 23.9716 24.9454 23.9913 24.9951C24.0111 25.0448 24.0456 25.1232 24.0653 25.1728C24.085 25.2225 24.1023 25.2747 24.1023 25.2904C24.1023 25.3061 24.1121 25.3401 24.1245 25.3662C24.1664 25.4498 24.2256 25.6014 24.2256 25.6249C24.2256 25.638 24.2477 25.6955 24.2724 25.753C24.2995 25.8105 24.3291 25.8941 24.339 25.9359C24.3488 25.9778 24.3759 26.0483 24.4006 26.0954C24.4253 26.1398 24.4524 26.2208 24.4622 26.2705C24.4696 26.3227 24.4869 26.3724 24.4992 26.3802C24.5116 26.3881 24.5214 26.4168 24.5214 26.4456C24.5214 26.4717 24.5313 26.4952 24.5436 26.4952C24.5559 26.4952 24.5732 26.5423 24.5831 26.5998C24.5929 26.6573 24.6077 26.7043 24.6151 26.7043C24.625 26.7043 24.6472 26.754 24.6644 26.8141C24.6841 26.8768 24.7137 26.9604 24.731 27.0049C24.7482 27.0467 24.7926 27.1721 24.8296 27.2793C24.8666 27.3864 24.9085 27.4857 24.9184 27.4988C24.9307 27.5145 24.9405 27.5406 24.9405 27.5615C24.9405 27.5955 24.9923 27.734 25.0416 27.8333C25.054 27.8595 25.0638 27.8934 25.0638 27.9091C25.0638 27.9248 25.0811 27.9771 25.1008 28.0267C25.1205 28.0764 25.155 28.1548 25.1748 28.2044C25.1945 28.2541 25.2118 28.3064 25.2118 28.322C25.2118 28.3377 25.2216 28.3717 25.2339 28.3978C25.2463 28.4214 25.2759 28.4945 25.298 28.5599C25.3646 28.7428 25.3893 28.8055 25.4115 28.8526C25.4238 28.8787 25.4336 28.9127 25.4336 28.9284C25.4336 28.9441 25.4509 28.9989 25.4731 29.0512C25.5693 29.2812 25.5816 29.3152 25.5816 29.3413C25.5816 29.357 25.5914 29.391 25.6038 29.4171C25.6531 29.5164 25.7049 29.6549 25.7049 29.6889C25.7049 29.7098 25.7147 29.7359 25.727 29.7516C25.7369 29.7647 25.7665 29.8326 25.7911 29.9058C25.8158 29.9764 25.8553 30.0861 25.8824 30.1489C25.907 30.2116 25.9341 30.2978 25.944 30.3397C25.9514 30.3815 25.9662 30.4154 25.9785 30.4154C25.9909 30.4154 26.0007 30.4442 26.0007 30.4808C26.0007 30.5174 26.0106 30.5461 26.0229 30.5461C26.0352 30.5461 26.0525 30.5932 26.0624 30.6507C26.0722 30.7082 26.0895 30.7552 26.1018 30.7552C26.1141 30.7552 26.124 30.7787 26.124 30.8049C26.124 30.8336 26.1363 30.865 26.1486 30.8728C26.1634 30.8806 26.1733 30.9068 26.1733 30.9303C26.1733 30.9512 26.1881 31.0061 26.2078 31.0505C26.2251 31.0976 26.2547 31.176 26.2719 31.2256C26.3163 31.3511 26.3705 31.4896 26.3977 31.5445C26.41 31.5706 26.4199 31.6046 26.4199 31.6203C26.4199 31.6359 26.4371 31.6882 26.4568 31.7379C26.4766 31.7875 26.5111 31.8659 26.5308 31.9156C26.5505 31.9652 26.5678 32.0175 26.5678 32.0332C26.5678 32.0489 26.5776 32.0828 26.59 32.109C26.6368 32.1978 26.6911 32.3442 26.6911 32.3729C26.6911 32.3886 26.7009 32.4226 26.7132 32.4487C26.7601 32.5376 26.8143 32.6839 26.8143 32.7127C26.8143 32.7414 26.8267 32.7728 26.8834 32.8904C26.9006 32.9244 26.913 32.9636 26.913 32.9793C26.913 32.9949 26.9302 33.0498 26.9524 33.1021C27.051 33.3347 27.0609 33.3661 27.0609 33.4C27.0609 33.4209 27.0707 33.4471 27.0831 33.4601C27.0929 33.4758 27.162 33.6509 27.2335 33.8522C27.305 34.0534 27.3715 34.2285 27.3839 34.2442C27.3937 34.2573 27.4085 34.3148 27.4184 34.367C27.4282 34.4219 27.4455 34.4663 27.4578 34.4663C27.4702 34.4663 27.48 34.4899 27.48 34.516C27.48 34.5447 27.4899 34.5735 27.5022 34.5839C27.5145 34.5918 27.5343 34.6362 27.5441 34.6806C27.5515 34.7277 27.5688 34.7826 27.5786 34.8061C27.6255 34.8976 27.6773 35.0387 27.6773 35.0648C27.6773 35.0805 27.6896 35.1171 27.7019 35.1458C27.7167 35.1746 27.7389 35.2216 27.7512 35.2504C27.766 35.2791 27.7759 35.3157 27.7759 35.3314C27.7759 35.3601 27.8301 35.5065 27.877 35.5954C27.8893 35.6215 27.8992 35.6555 27.8992 35.6711C27.8992 35.6868 27.9164 35.7391 27.9361 35.7888C27.9559 35.8384 27.9904 35.9168 28.0101 35.9665C28.0298 36.0161 28.0471 36.071 28.0471 36.0919C28.0471 36.1128 28.0569 36.139 28.0693 36.152C28.0791 36.1677 28.1087 36.2357 28.1334 36.3088C28.2394 36.6277 28.2936 36.7139 28.2936 36.5702C28.2936 36.5336 28.306 36.5048 28.3183 36.5048C28.3331 36.5048 28.3429 36.4866 28.3429 36.463C28.3429 36.4395 28.3602 36.3794 28.3824 36.3271C28.449 36.1651 28.4613 36.1285 28.481 36.0606C28.4884 36.024 28.5155 35.9482 28.5402 35.8907C28.5648 35.8332 28.6018 35.726 28.6265 35.6555C28.6511 35.5823 28.6807 35.5143 28.6906 35.4987C28.7029 35.4856 28.7128 35.4595 28.7128 35.4385C28.7128 35.4176 28.73 35.3601 28.7522 35.3079C28.8484 35.0779 28.8607 35.0439 28.8607 35.0178C28.8607 35.0021 28.8706 34.9681 28.8829 34.942C28.9297 34.8531 28.984 34.7068 28.984 34.678C28.984 34.6493 28.9963 34.6179 29.053 34.5003C29.0703 34.4663 29.0826 34.4271 29.0826 34.4114C29.0826 34.3853 29.1344 34.2442 29.1812 34.1527C29.1911 34.1292 29.2083 34.0743 29.2157 34.0273C29.2256 33.9828 29.2453 33.9384 29.2576 33.9306C29.27 33.9201 29.2798 33.8914 29.2798 33.8626C29.2798 33.8365 29.2897 33.813 29.302 33.813C29.3144 33.813 29.3316 33.7711 29.3415 33.7189C29.3489 33.6666 29.3661 33.6039 29.3785 33.5804C29.4278 33.4811 29.4771 33.3452 29.4771 33.3112C29.4771 33.2903 29.4869 33.2641 29.4993 33.2511C29.5264 33.2171 29.7729 32.5297 29.7729 32.4853C29.7729 32.4696 29.7828 32.454 29.7951 32.454C29.8075 32.454 29.8247 32.4069 29.8346 32.3494C29.8444 32.2919 29.8617 32.2449 29.874 32.2449C29.8863 32.2449 29.8962 32.2214 29.8962 32.1952C29.8962 32.1665 29.9061 32.1377 29.9184 32.1299C29.9307 32.122 29.948 32.0724 29.9554 32.0201C29.9652 31.9705 29.9924 31.8894 30.017 31.845C30.0417 31.798 30.0688 31.7274 30.0787 31.6856C30.0885 31.6438 30.1181 31.5601 30.1452 31.5027C30.1699 31.4452 30.1921 31.3877 30.1921 31.3746C30.1921 31.3511 30.2512 31.1995 30.2932 31.1159C30.3055 31.0897 30.3153 31.0557 30.3153 31.0401C30.3153 31.0244 30.3326 30.9721 30.3523 30.9225C30.3721 30.8728 30.4066 30.7944 30.4263 30.7447C30.446 30.6951 30.4633 30.6428 30.4633 30.6271C30.4633 30.6115 30.4731 30.5775 30.4855 30.5513C30.5077 30.5043 30.5323 30.4416 30.5989 30.2586C30.6211 30.1933 30.6507 30.1201 30.663 30.0966C30.6753 30.0705 30.6852 30.0365 30.6852 30.0208C30.6852 29.9921 30.7394 29.8457 30.7863 29.7568C30.7986 29.7307 30.8084 29.6967 30.8084 29.6811C30.8084 29.6654 30.8257 29.6131 30.8454 29.5634C30.8652 29.5138 30.8997 29.4354 30.9194 29.3857C30.9391 29.3361 30.9564 29.2838 30.9564 29.2681C30.9564 29.2524 30.9662 29.2185 30.9786 29.1923C31.0057 29.1375 31.0599 28.9989 31.1043 28.8735C31.1216 28.8238 31.1512 28.7454 31.1684 28.6984C31.1881 28.654 31.2029 28.6043 31.2029 28.5886C31.2029 28.5729 31.2128 28.539 31.2251 28.5128C31.2769 28.4083 31.3262 28.275 31.3262 28.2358C31.3262 28.2123 31.3385 28.194 31.3509 28.194C31.3657 28.194 31.3755 28.1652 31.3755 28.1287C31.3755 28.0921 31.3854 28.0633 31.3977 28.0633C31.41 28.0633 31.4273 28.0189 31.4371 27.964C31.447 27.9117 31.4618 27.8542 31.4717 27.8412C31.484 27.8255 31.5506 27.6504 31.6221 27.4491C31.6936 27.2479 31.7626 27.0728 31.7725 27.0571C31.7848 27.0441 31.7946 27.0153 31.7946 26.9918C31.7946 26.9709 31.8119 26.9186 31.8316 26.8768C31.8514 26.8376 31.8686 26.7801 31.8686 26.754C31.8686 26.7252 31.8809 26.7043 31.8933 26.7043C31.9081 26.7043 31.9179 26.686 31.9179 26.6625C31.9179 26.639 31.9352 26.5789 31.9574 26.5266C32.0239 26.3646 32.0363 26.328 32.056 26.26C32.0634 26.2234 32.0905 26.1476 32.1152 26.0901C32.1398 26.0326 32.1768 25.9255 32.2015 25.8549C32.2261 25.7817 32.2557 25.7138 32.2656 25.6981C32.2779 25.6851 32.2877 25.6589 32.2877 25.638C32.2877 25.6171 32.305 25.5622 32.3247 25.5126C32.3445 25.4629 32.379 25.3845 32.3987 25.3348C32.4184 25.2852 32.4357 25.2329 32.4357 25.2172C32.4357 25.2016 32.4455 25.1676 32.4579 25.1414C32.5047 25.0526 32.559 24.9062 32.559 24.8775C32.559 24.8618 32.5688 24.8278 32.5811 24.8017C32.6033 24.7547 32.628 24.6919 32.6946 24.509C32.7167 24.4436 32.7463 24.3705 32.7587 24.347C32.771 24.3208 32.7808 24.2868 32.7808 24.2712C32.7808 24.245 32.7932 24.2111 32.8893 23.9811C32.9115 23.9288 32.9288 23.8739 32.9288 23.8582C32.9288 23.8426 32.9386 23.8086 32.951 23.7824C33.0003 23.6831 33.0521 23.5446 33.0521 23.5106C33.0521 23.4897 33.0619 23.4636 33.0742 23.4479C33.0841 23.4348 33.126 23.3355 33.163 23.2284C33.2 23.1212 33.2444 22.9958 33.2616 22.954C33.2789 22.9095 33.3085 22.8259 33.3282 22.7632C33.3454 22.7031 33.3676 22.6534 33.3775 22.6534C33.3849 22.6534 33.3997 22.6064 33.4096 22.5489C33.4194 22.4914 33.4367 22.4443 33.449 22.4443C33.4613 22.4443 33.4712 22.4156 33.4712 22.379C33.4712 22.3424 33.4811 22.3137 33.4934 22.3137C33.5057 22.3137 33.523 22.2719 33.5304 22.2196C33.5402 22.1699 33.5673 22.0889 33.592 22.0445C33.6167 21.9974 33.6438 21.9269 33.6536 21.8851C33.6635 21.8432 33.6931 21.7596 33.7202 21.7021C33.7449 21.6446 33.767 21.5871 33.767 21.5741C33.767 21.5505 33.8262 21.3989 33.8681 21.3153C33.8805 21.2892 33.8903 21.2552 33.8903 21.2395C33.8903 21.2238 33.9076 21.1716 33.9273 21.1219C33.947 21.0723 33.9815 20.9939 34.0013 20.9442C34.021 20.8945 34.0383 20.8423 34.0383 20.8266C34.0383 20.8109 34.0481 20.7769 34.0604 20.7508C34.0826 20.7038 34.1073 20.641 34.1739 20.4581C34.196 20.3928 34.2256 20.3196 34.238 20.2961C34.2503 20.2699 34.2601 20.236 34.2601 20.2203C34.2601 20.1915 34.3144 20.0452 34.3612 19.9563C34.3736 19.9302 34.3834 19.8962 34.3834 19.8805C34.3834 19.8648 34.4007 19.8126 34.4204 19.7629C34.4401 19.7133 34.4746 19.6349 34.4944 19.5852C34.5141 19.5355 34.5314 19.4833 34.5314 19.4676C34.5314 19.4519 34.5412 19.4179 34.5535 19.3918C34.5807 19.3369 34.6349 19.1984 34.6793 19.073C34.6965 19.0233 34.7261 18.9449 34.7434 18.8979C34.7631 18.8534 34.7779 18.8038 34.7779 18.7881C34.7779 18.7724 34.7878 18.7384 34.8001 18.7123C34.8519 18.6104 34.9012 18.4745 34.9012 18.4379C34.9012 18.4144 34.9135 18.3882 34.9258 18.3804C34.9406 18.3725 34.9505 18.3412 34.9505 18.3124C34.9505 18.2863 34.9604 18.2628 34.9727 18.2628C34.985 18.2628 35.0023 18.2183 35.0121 18.1635C35.022 18.1112 35.0368 18.0537 35.0466 18.0406C35.059 18.0249 35.1255 17.8498 35.197 17.6486C35.2685 17.4474 35.3351 17.2697 35.3474 17.2566C35.3573 17.2409 35.3721 17.186 35.382 17.1311C35.3918 17.0789 35.4091 17.0344 35.4214 17.0344C35.4337 17.0344 35.4436 17.0057 35.4436 16.9691C35.4436 16.9325 35.4559 16.9038 35.4682 16.9038C35.483 16.9038 35.4929 16.8855 35.4929 16.862C35.4929 16.8384 35.5102 16.7783 35.5323 16.7261C35.5989 16.564 35.6112 16.5274 35.631 16.4595C35.6384 16.4229 35.6655 16.3471 35.6901 16.2896C35.7148 16.2321 35.7518 16.125 35.7764 16.0544C35.8011 15.9812 35.8307 15.9133 35.8405 15.8976C35.8529 15.8845 35.8627 15.8584 35.8627 15.8375C35.8627 15.8035 35.9145 15.665 35.9638 15.5657C35.9761 15.5395 35.986 15.5056 35.986 15.4899C35.986 15.4742 36.0033 15.4219 36.023 15.3723C36.0427 15.3226 36.0772 15.2442 36.0969 15.1946C36.1167 15.1449 36.1339 15.0926 36.1339 15.0769C36.1339 15.0613 36.1438 15.0273 36.1561 15.0012C36.1783 14.9541 36.203 14.8914 36.2695 14.7084C36.2917 14.6431 36.3213 14.5699 36.3336 14.5464C36.346 14.5203 36.3558 14.4863 36.3558 14.4706C36.3558 14.4549 36.3731 14.4027 36.3928 14.353C36.4125 14.3034 36.4471 14.225 36.4668 14.1753C36.4865 14.1256 36.5038 14.0734 36.5038 14.0577C36.5038 14.042 36.5136 14.008 36.5259 13.9819C36.5753 13.8826 36.627 13.7441 36.627 13.7101C36.627 13.6892 36.6369 13.6631 36.6492 13.65C36.6591 13.6343 36.701 13.535 36.738 13.4278C36.775 13.3207 36.8193 13.1952 36.8391 13.1482C36.8588 13.1038 36.8736 13.0489 36.8736 13.028C36.8736 13.0045 36.8859 12.9783 36.8982 12.9705C36.913 12.9626 36.9229 12.9313 36.9229 12.9025C36.9229 12.8764 36.9328 12.8529 36.9451 12.8529C36.9574 12.8529 36.9747 12.8058 36.9845 12.7483C36.9944 12.6908 37.0117 12.6438 37.024 12.6438C37.0363 12.6438 37.0462 12.6151 37.0462 12.5785C37.0462 12.5419 37.056 12.5131 37.0684 12.5131C37.0807 12.5131 37.0979 12.4713 37.1053 12.419C37.1152 12.3694 37.1423 12.2884 37.167 12.2439C37.1916 12.1969 37.2188 12.1263 37.2286 12.0845C37.2385 12.0453 37.2656 11.9617 37.2903 11.9016C37.3149 11.8441 37.3544 11.7343 37.379 11.6637C37.4037 11.5906 37.4333 11.5226 37.4431 11.5069C37.4554 11.4939 37.4653 11.4677 37.4653 11.4468C37.4653 11.4259 37.4826 11.371 37.5023 11.3214C37.522 11.2717 37.5565 11.1933 37.5763 11.1437C37.596 11.094 37.6132 11.0417 37.6132 11.0261C37.6132 11.0104 37.6231 10.9764 37.6354 10.9503C37.6576 10.9032 37.6823 10.8405 37.7488 10.6576C37.771 10.5922 37.8006 10.519 37.8129 10.4955C37.8253 10.4694 37.8351 10.4354 37.8351 10.4197C37.8351 10.391 37.8894 10.2446 37.9362 10.1558C37.9485 10.1296 37.9584 10.0957 37.9584 10.08C37.9584 10.0643 37.9757 10.012 37.9954 9.96237C38.0151 9.91272 38.0496 9.83431 38.0694 9.78466C38.0891 9.735 38.1063 9.68273 38.1063 9.66705C38.1063 9.65137 38.1162 9.61739 38.1285 9.59126C38.1754 9.5024 38.2296 9.35605 38.2296 9.3273C38.2296 9.31162 38.2419 9.27503 38.2543 9.24628C38.2691 9.21753 38.2912 9.17049 38.3036 9.14174C38.3184 9.11299 38.3282 9.0764 38.3282 9.06072C38.3282 9.03459 38.38 8.89346 38.4268 8.80199C38.4367 8.77847 38.454 8.72358 38.4614 8.67654C38.4712 8.63211 38.491 8.58768 38.5033 8.57984C38.5156 8.56939 38.5255 8.54064 38.5255 8.51189C38.5255 8.48576 38.5353 8.46224 38.5477 8.46224C38.56 8.46224 38.5772 8.42042 38.5871 8.36815C38.5945 8.31588 38.6118 8.25316 38.6241 8.22964C38.6561 8.1643 38.7079 8.02579 38.809 7.74353C38.8608 7.59979 38.9101 7.46912 38.9224 7.45605C38.9323 7.44037 38.9471 7.38548 38.9569 7.3306C38.9668 7.27833 38.9841 7.2339 38.9964 7.2339C39.0087 7.2339 39.0186 7.20515 39.0186 7.16857C39.0186 7.13198 39.0309 7.10323 39.0432 7.10323C39.058 7.10323 39.0679 7.08493 39.0679 7.06141C39.0679 7.03789 39.0851 6.97778 39.1073 6.92551C39.1739 6.76348 39.1862 6.72689 39.2059 6.65894C39.2133 6.62235 39.2405 6.54656 39.2651 6.48906C39.2898 6.43156 39.3268 6.32441 39.3514 6.25385C39.3761 6.18067 39.4057 6.11272 39.4155 6.09704C39.4278 6.08397 39.4377 6.05784 39.4377 6.03693C39.4377 6.00295 39.4895 5.86444 39.5388 5.76513C39.5511 5.73899 39.561 5.70502 39.561 5.68934C39.561 5.67366 39.5782 5.62139 39.598 5.57173C39.6177 5.52207 39.6522 5.44367 39.6719 5.39401C39.6917 5.34436 39.7089 5.29209 39.7089 5.27641C39.7089 5.26073 39.7212 5.22152 39.7385 5.18755C39.7952 5.06994 39.8075 5.03858 39.8075 5.00983C39.8075 4.98108 39.8618 4.83473 39.9086 4.74587C39.9209 4.71974 39.9308 4.68576 39.9308 4.67008C39.9308 4.6544 39.9481 4.60213 39.9678 4.55247C39.9875 4.50282 40.022 4.42441 40.0418 4.37476C40.0615 4.3251 40.0787 4.27022 40.0787 4.24931C40.0787 4.2284 40.0886 4.20227 40.0985 4.1892C40.1108 4.17352 40.1354 4.12125 40.1527 4.07159C40.2489 3.79457 40.7148 2.77008 40.7691 2.71259C40.7814 2.69952 40.8332 2.60543 40.8998 2.46953C40.9367 2.39897 41.1685 2.02524 41.1882 2.00695C41.1956 1.99911 41.2203 1.96513 41.24 1.92854C41.2622 1.89195 41.3041 1.83184 41.3312 1.79787C41.3608 1.76128 41.4471 1.6489 41.526 1.54959C41.7972 1.19938 42.1251 0.883153 42.453 0.66362C42.6207 0.548627 42.9116 0.386592 42.9437 0.386592C42.9683 0.386592 43.1064 0.326482 43.1877 0.282053C43.2099 0.268985 43.2691 0.250691 43.3184 0.242851C43.3677 0.232397 43.4146 0.214102 43.422 0.201035C43.4294 0.187968 43.4663 0.177514 43.5033 0.177514C43.5403 0.177514 43.5798 0.169673 43.5896 0.156606C43.5995 0.146152 43.6932 0.122631 43.7967 0.104336C43.9003 0.086042 44.0581 0.0572938 44.1468 0.0416129C44.3515 0.00241075 45.562 0.00241075 45.7617 0.0416129C46.1858 0.122631 46.3041 0.151379 46.4274 0.206262C46.4545 0.216716 46.5038 0.23501 46.5384 0.242851C46.674 0.279439 47.0931 0.496358 47.3076 0.640099C47.3963 0.700209 47.5467 0.817816 47.6404 0.901447C47.7317 0.982465 47.8229 1.06348 47.8401 1.07916C47.8722 1.10791 48.2001 1.49471 48.2642 1.57834C48.353 1.69594 48.6094 2.14024 48.6242 2.20296C48.6316 2.23955 48.6464 2.2683 48.6562 2.2683C48.6661 2.2683 48.6883 2.31272 48.7055 2.36499C48.7228 2.41988 48.7548 2.50612 48.7746 2.55578C48.8436 2.73088 48.8535 2.75179 48.8929 2.9086C48.9151 2.99484 48.9447 3.09415 48.957 3.13074C48.9767 3.19085 48.9915 3.26664 49.0556 3.61424V3.61424Z" fill="white"/>
</g>
<defs>
<clipPath id="clip0_4118_677">
<rect width="93" height="70" fill="white"/>
</clipPath>
</defs>
</svg>
